<svg viewBox="0 0 1440 200" xmlns="http://www.w3.org/2000/svg" preserveAspectRatio="none">
  <polyline 
    fill="none" 
    stroke="#0ea5e9" 
    stroke-width="1.5" 
    stroke-opacity="0.7" 
    points="
      0,100 5,30 10,170 15,40 20,160 25,60 30,140 35,90 40,110 45,80 50,120 55,50 60,160 65,60 70,140 75,80
      80,120 85,50 90,160 95,60 100,140 105,90 110,110 115,80 120,120 125,50 130,160 135,60 140,140 145,80
      150,120 155,50 160,160 165,60 170,140 175,90 180,110 185,80 190,120 195,50 200,160 205,60 210,140 215,80
      220,120 225,50 230,160 235,60 240,140 245,90 250,110 255,80 260,120 265,50 270,160 275,60 280,140 285,80
      290,120 295,50 300,160 305,60 310,140 315,90 320,110 325,80 330,120 335,50 340,160 345,60 350,140 355,80
      360,120 365,50 370,160 375,60 380,140 385,90 390,110 395,80 400,120 405,50 410,160 415,60 420,140 425,80
      430,120 435,50 440,160 445,60 450,140 455,90 460,110 465,80 470,120 475,50 480,160 485,60 490,140 495,80
      500,120 505,50 510,160 515,60 520,140 525,90 530,110 535,80 540,120 545,50 550,160 555,60 560,140 565,80
      570,120 575,50 580,160 585,60 590,140 595,90 600,110 605,80 610,120 615,50 620,160 625,60 630,140 635,80
      640,120 645,50 650,160 655,60 660,140 665,90 670,110 675,80 680,120 685,50 690,160 695,60 700,140 705,80
      710,120 715,50 720,160 725,60 730,140 735,90 740,110 745,80 750,120 755,50 760,160 765,60 770,140 775,80
      780,120 785,50 790,160 795,60 800,140 805,90 810,110 815,80 820,120 825,50 830,160 835,60 840,140 845,80
      850,120 855,50 860,160 865,60 870,140 875,90 880,110 885,80 890,120 895,50 900,160 905,60 910,140 915,80
      920,120 925,50 930,160 935,60 940,140 945,90 950,110 955,80 960,120 965,50 970,160 975,60 980,140 985,80
      990,120 995,50 1000,160 1005,60 1010,140 1015,90 1020,110 1025,80 1030,120 1035,50 1040,160 1045,60 1050,140 1055,80
      1060,120 1065,50 1070,160 1075,60 1080,140 1085,90 1090,110 1095,80 1100,120 1105,50 1110,160 1115,60 1120,140 1125,80
      1130,120 1135,50 1140,160 1145,60 1150,140 1155,90 1160,110 1165,80 1170,120 1175,50 1180,160 1185,60 1190,140 1195,80
      1200,120 1205,50 1210,160 1215,60 1220,140 1225,90 1230,110 1235,80 1240,120 1245,50 1250,160 1255,60 1260,140 1265,80
      1270,120 1275,50 1280,160 1285,60 1290,140 1295,90 1300,110 1305,80 1310,120 1315,50 1320,160 1325,60 1330,140 1335,80
      1340,120 1345,50 1350,160 1355,60 1360,140 1365,90 1370,110 1375,80 1380,120 1385,50 1390,160 1395,60 1400,140 1405,80 1410,110 1415,90 1420,100 1440,100
    "
  />
</svg>